<svg width="1920" height="1080" viewBox="0 0 1920 1080" fill="none" xmlns="http://www.w3.org/2000/svg">
<g clip-path="url(#clip0_103_689)">
<path d="M1920 0H0V1080H1920V0Z" fill="white"/>
<path d="M1922 0H0V1080H1922V0Z" fill="#25283B"/>
<path d="M6.10352e-05 768.462C98.967 785.758 193.146 699.811 272.367 612.376C347.507 529.445 410.968 419.381 435.743 287.535C458.833 164.65 420.906 40.9706 403.178 -83.7596C386.6 -200.406 377.174 -317.211 335.221 -419.707C286.952 -537.632 237.872 -685.659 145.132 -714.192C51.8794 -742.882 -28.9514 -621.843 -113.334 -557.712C-181.167 -506.159 -246.673 -455.131 -300.14 -375.786C-356.297 -292.45 -418.693 -204.483 -429.082 -89.1405C-439.435 25.7928 -388.727 129.095 -355.093 234.318C-321.609 339.07 -288.4 440.829 -233.08 524.043C-165.204 626.146 -97.2731 751.462 6.10352e-05 768.462Z" fill="#232638"/>
<path d="M1922 1964.21C2033.59 1941.73 2117.98 1810.18 2192.4 1687.94C2253.15 1588.13 2265.35 1452.64 2306 1333.39C2348.25 1209.41 2432.16 1111.31 2436 973.217C2440.08 826.946 2401.74 671.818 2327.17 572.71C2254.59 476.239 2143.51 495.633 2048.4 458.013C1955.47 421.258 1870.41 340.931 1774.49 354.117C1668.23 368.725 1555.69 417.304 1486.88 535.211C1418.28 652.744 1406.83 820.661 1412.62 974.177C1417.79 1110.87 1488.48 1216.6 1517.53 1346.9C1551.83 1500.82 1521.45 1690.17 1598.39 1807.59C1678.22 1929.43 1807 1987.38 1922 1964.21Z" fill="#272A3E"/>
<g opacity="0.15">
<path opacity="0.15" d="M-12.8848 770.329L154.729 713.841" stroke="#484C65" stroke-width="1.5"/>
<path opacity="0.15" d="M-12.8848 770.329L469.929 669.311" stroke="#484C65" stroke-width="1.5"/>
<path opacity="0.15" d="M-12.8848 770.329L473.765 1033.41" stroke="#484C65" stroke-width="1.5"/>
<path opacity="0.15" d="M-27.7224 993.098L154.729 713.841" stroke="#484C65" stroke-width="1.5"/>
<path opacity="0.15" d="M154.729 713.841L469.929 669.311" stroke="#484C65" stroke-width="1.5"/>
<path opacity="0.15" d="M154.729 713.841L473.765 1033.41" stroke="#484C65" stroke-width="1.5"/>
<path opacity="0.15" d="M217.577 1294.92L473.765 1033.41" stroke="#484C65" stroke-width="1.5"/>
<path opacity="0.15" d="M553.689 502.123L469.929 669.311" stroke="#484C65" stroke-width="1.5"/>
<path opacity="0.15" d="M553.689 502.123L744.81 468.566" stroke="#484C65" stroke-width="1.5"/>
<path opacity="0.15" d="M553.689 502.123L734.391 679.069" stroke="#484C65" stroke-width="1.5"/>
<path opacity="0.15" d="M553.689 502.123L995.018 476.454" stroke="#484C65" stroke-width="1.5"/>
<path opacity="0.15" d="M469.929 669.311L734.392 679.069" stroke="#484C65" stroke-width="1.5"/>
<path opacity="0.15" d="M469.929 669.311L744.81 468.566" stroke="#484C65" stroke-width="1.5"/>
<path opacity="0.15" d="M469.929 669.311L473.765 1033.41" stroke="#484C65" stroke-width="1.5"/>
<path opacity="0.15" d="M473.765 1033.41L482.867 1264.18" stroke="#484C65" stroke-width="1.5"/>
<path opacity="0.15" d="M482.867 1264.18L835.114 1012.58" stroke="#484C65" stroke-width="1.5"/>
<path opacity="0.15" d="M482.867 1264.18L-27.7224 993.099" stroke="#484C65" stroke-width="1.5"/>
<path opacity="0.15" d="M744.81 468.566L734.392 679.069" stroke="#484C65" stroke-width="1.5"/>
<path opacity="0.15" d="M744.81 468.566L995.018 476.454" stroke="#484C65" stroke-width="1.5"/>
<path opacity="0.15" d="M744.81 468.566L1052.71 653.766" stroke="#484C65" stroke-width="1.5"/>
<path opacity="0.15" d="M744.81 468.566L1007.64 97.7014" stroke="#484C65" stroke-width="1.5"/>
<path opacity="0.15" d="M734.392 679.069L1052.71 653.767" stroke="#484C65" stroke-width="1.5"/>
<path opacity="0.15" d="M835.114 1012.58L1030.39 1023.44" stroke="#484C65" stroke-width="1.5"/>
<path opacity="0.15" d="M835.114 1012.58L734.392 679.069" stroke="#484C65" stroke-width="1.5"/>
<path opacity="0.15" d="M835.114 1012.58L473.765 1033.41" stroke="#484C65" stroke-width="1.5"/>
<path opacity="0.15" d="M835.114 1012.58L1011 1343.64" stroke="#484C65" stroke-width="1.5"/>
<path opacity="0.15" d="M1028.19 -142.097L1007.64 97.7014" stroke="#484C65" stroke-width="1.5"/>
<path opacity="0.15" d="M1007.64 97.7014L995.018 476.454" stroke="#484C65" stroke-width="1.5"/>
<path opacity="0.15" d="M1007.64 97.7014L1368.78 215.981" stroke="#484C65" stroke-width="1.5"/>
<path opacity="0.15" d="M1007.64 97.7014L1263.99 443.822" stroke="#484C65" stroke-width="1.5"/>
<path opacity="0.15" d="M995.018 476.454L1052.71 653.766" stroke="#484C65" stroke-width="1.5"/>
<path opacity="0.15" d="M995.018 476.454L1263.99 443.822" stroke="#484C65" stroke-width="1.5"/>
<path opacity="0.15" d="M995.018 476.454L734.392 679.069" stroke="#484C65" stroke-width="1.5"/>
<path opacity="0.15" d="M995.018 476.454L1317.82 775.787" stroke="#484C65" stroke-width="1.5"/>
<path opacity="0.15" d="M1052.71 653.767L1317.82 775.787" stroke="#484C65" stroke-width="1.5"/>
<path opacity="0.15" d="M1052.71 653.767L1263.99 443.822" stroke="#484C65" stroke-width="1.5"/>
<path opacity="0.15" d="M1030.39 1023.44L1278.14 1063.2" stroke="#484C65" stroke-width="1.5"/>
<path opacity="0.15" d="M1030.39 1023.44L1011 1343.64" stroke="#484C65" stroke-width="1.5"/>
<path opacity="0.15" d="M1030.39 1023.44L1052.71 653.767" stroke="#484C65" stroke-width="1.5"/>
<path opacity="0.15" d="M1030.39 1023.43L1317.82 775.787" stroke="#484C65" stroke-width="1.5"/>
<path opacity="0.15" d="M1030.39 1023.44L1302.88 1328.01" stroke="#484C65" stroke-width="1.5"/>
<path opacity="0.15" d="M1357.91 -195.769L1368.78 215.981" stroke="#484C65" stroke-width="1.5"/>
<path opacity="0.15" d="M1368.78 215.981L1263.99 443.822" stroke="#484C65" stroke-width="1.5"/>
<path opacity="0.15" d="M1368.78 215.981L1611.39 377.46" stroke="#484C65" stroke-width="1.5"/>
<path opacity="0.15" d="M1368.78 215.981L1671 136.562" stroke="#484C65" stroke-width="1.5"/>
<path opacity="0.15" d="M1368.78 215.981L995.018 476.454" stroke="#484C65" stroke-width="1.5"/>
<path opacity="0.15" d="M1317.82 775.787L1278.14 1063.2" stroke="#484C65" stroke-width="1.5"/>
<path opacity="0.15" d="M1317.82 775.787L1263.99 443.822" stroke="#484C65" stroke-width="1.5"/>
<path opacity="0.15" d="M1317.82 775.787L1649.32 735.866" stroke="#484C65" stroke-width="1.5"/>
<path opacity="0.15" d="M1278.14 1063.2L1302.88 1328.01" stroke="#484C65" stroke-width="1.5"/>
<path opacity="0.15" d="M1633 -185.567L1671 136.562" stroke="#484C65" stroke-width="1.5"/>
<path opacity="0.15" d="M1671 136.562L1867.78 127.768" stroke="#484C65" stroke-width="1.5"/>
<path opacity="0.15" d="M1671 136.562L1611.39 377.46" stroke="#484C65" stroke-width="1.5"/>
<path opacity="0.15" d="M1671 136.562L1899 493.792" stroke="#484C65" stroke-width="1.5"/>
<path opacity="0.15" d="M1671 136.562L1357.91 -195.769" stroke="#484C65" stroke-width="1.5"/>
<path opacity="0.15" d="M1649.32 735.866L1839.78 726.088" stroke="#484C65" stroke-width="1.5"/>
<path opacity="0.15" d="M1649.32 735.866L1829.44 1012.56" stroke="#484C65" stroke-width="1.5"/>
<path opacity="0.15" d="M1649.32 735.866L1637.3 1070.97" stroke="#484C65" stroke-width="1.5"/>
<path opacity="0.15" d="M1637.3 1070.97L1829.44 1012.56" stroke="#484C65" stroke-width="1.5"/>
<path opacity="0.15" d="M1637.3 1070.97L1278.14 1063.2" stroke="#484C65" stroke-width="1.5"/>
<path opacity="0.15" d="M1637.3 1070.97L1937.36 1322.98" stroke="#484C65" stroke-width="1.5"/>
<path opacity="0.15" d="M1637.3 1070.97L1839.78 726.088" stroke="#484C65" stroke-width="1.5"/>
<path opacity="0.15" d="M1637.3 1070.97L1302.88 1328.01" stroke="#484C65" stroke-width="1.5"/>
<path opacity="0.15" d="M1867.78 127.768L1611.39 377.46" stroke="#484C65" stroke-width="1.5"/>
<path opacity="0.15" d="M1867.78 127.768L1899 493.791" stroke="#484C65" stroke-width="1.5"/>
<path opacity="0.15" d="M1899 493.792L1839.78 726.088" stroke="#484C65" stroke-width="1.5"/>
<path opacity="0.15" d="M1899 493.791L1611.39 377.46" stroke="#484C65" stroke-width="1.5"/>
<path opacity="0.15" d="M1899 493.791L2209.89 482.124" stroke="#484C65" stroke-width="1.5"/>
<path opacity="0.15" d="M1839.78 726.088L1829.44 1012.56" stroke="#484C65" stroke-width="1.5"/>
<path opacity="0.15" d="M1839.78 726.088L2160.21 725.895" stroke="#484C65" stroke-width="1.5"/>
<path opacity="0.15" d="M1829.44 1012.56L1937.36 1322.98" stroke="#484C65" stroke-width="1.5"/>
<path opacity="0.15" d="M1829.44 1012.56L2158.59 1053.23" stroke="#484C65" stroke-width="1.5"/>
<path opacity="0.15" d="M1829.44 1012.56L2160.21 725.895" stroke="#484C65" stroke-width="1.5"/>
<path opacity="0.15" d="M2146.35 -107.672L1867.78 127.768" stroke="#484C65" stroke-width="1.5"/>
<path opacity="0.15" d="M2146.35 -107.672L1671 136.562" stroke="#484C65" stroke-width="1.5"/>
<path opacity="0.15" d="M2209.89 482.124L1839.78 726.088" stroke="#484C65" stroke-width="1.5"/>
<path opacity="0.15" d="M2209.89 482.124L1867.78 127.768" stroke="#484C65" stroke-width="1.5"/>
<path opacity="0.15" d="M2158.59 1053.23L1839.78 726.088" stroke="#484C65" stroke-width="1.5"/>
<path opacity="0.15" d="M2158.59 1053.23L1637.3 1070.97" stroke="#484C65" stroke-width="1.5"/>
<path opacity="0.15" d="M2184.34 1310.68L1829.44 1012.56" stroke="#484C65" stroke-width="1.5"/>
<path opacity="0.15" d="M154.729 723.484C159.922 723.484 164.132 719.167 164.132 713.842C164.132 708.516 159.922 704.199 154.729 704.199C149.536 704.199 145.326 708.516 145.326 713.842C145.326 719.167 149.536 723.484 154.729 723.484Z" fill="#484C65"/>
<path opacity="0.15" d="M553.689 511.766C558.882 511.766 563.092 507.448 563.092 502.123C563.092 496.797 558.882 492.48 553.689 492.48C548.496 492.48 544.286 496.797 544.286 502.123C544.286 507.448 548.496 511.766 553.689 511.766Z" fill="#484C65"/>
<path opacity="0.15" d="M469.929 678.954C475.122 678.954 479.332 674.636 479.332 669.311C479.332 663.985 475.122 659.668 469.929 659.668C464.736 659.668 460.526 663.985 460.526 669.311C460.526 674.636 464.736 678.954 469.929 678.954Z" fill="#484C65"/>
<path opacity="0.15" d="M473.765 1043.05C478.958 1043.05 483.168 1038.73 483.168 1033.41C483.168 1028.08 478.958 1023.76 473.765 1023.76C468.572 1023.76 464.363 1028.08 464.363 1033.41C464.363 1038.73 468.572 1043.05 473.765 1043.05Z" fill="#484C65"/>
<path opacity="0.15" d="M744.81 478.209C750.003 478.209 754.213 473.891 754.213 468.566C754.213 463.24 750.003 458.923 744.81 458.923C739.617 458.923 735.407 463.24 735.407 468.566C735.407 473.891 739.617 478.209 744.81 478.209Z" fill="#484C65"/>
<path opacity="0.15" d="M734.392 688.712C739.585 688.712 743.794 684.395 743.794 679.069C743.794 673.744 739.585 669.426 734.392 669.426C729.199 669.426 724.989 673.744 724.989 679.069C724.989 684.395 729.199 688.712 734.392 688.712Z" fill="#484C65"/>
<path opacity="0.15" d="M835.114 1022.22C840.307 1022.22 844.517 1017.9 844.517 1012.58C844.517 1007.25 840.307 1002.93 835.114 1002.93C829.921 1002.93 825.711 1007.25 825.711 1012.58C825.711 1017.9 829.921 1022.22 835.114 1022.22Z" fill="#484C65"/>
<path opacity="0.15" d="M1007.64 107.344C1012.83 107.344 1017.04 103.027 1017.04 97.7015C1017.04 92.3758 1012.83 88.0586 1007.64 88.0586C1002.44 88.0586 998.234 92.3758 998.234 97.7015C998.234 103.027 1002.44 107.344 1007.64 107.344Z" fill="#484C65"/>
<path opacity="0.15" d="M995.018 486.097C1000.21 486.097 1004.42 481.779 1004.42 476.454C1004.42 471.128 1000.21 466.811 995.018 466.811C989.825 466.811 985.615 471.128 985.615 476.454C985.615 481.779 989.825 486.097 995.018 486.097Z" fill="#484C65"/>
<path opacity="0.15" d="M1052.71 663.409C1057.91 663.409 1062.12 659.092 1062.12 653.766C1062.12 648.441 1057.91 644.124 1052.71 644.124C1047.52 644.124 1043.31 648.441 1043.31 653.766C1043.31 659.092 1047.52 663.409 1052.71 663.409Z" fill="#484C65"/>
<path opacity="0.15" d="M1030.39 1033.08C1035.58 1033.08 1039.79 1028.76 1039.79 1023.43C1039.79 1018.11 1035.58 1013.79 1030.39 1013.79C1025.2 1013.79 1020.99 1018.11 1020.99 1023.43C1020.99 1028.76 1025.2 1033.08 1030.39 1033.08Z" fill="#484C65"/>
<path opacity="0.15" d="M1368.78 225.624C1373.97 225.624 1378.18 221.306 1378.18 215.981C1378.18 210.655 1373.97 206.338 1368.78 206.338C1363.59 206.338 1359.38 210.655 1359.38 215.981C1359.38 221.306 1363.59 225.624 1368.78 225.624Z" fill="#484C65"/>
<path opacity="0.15" d="M1263.99 453.465C1269.19 453.465 1273.4 449.148 1273.4 443.822C1273.4 438.496 1269.19 434.179 1263.99 434.179C1258.8 434.179 1254.59 438.496 1254.59 443.822C1254.59 449.148 1258.8 453.465 1263.99 453.465Z" fill="#484C65"/>
<path opacity="0.15" d="M1317.82 785.43C1323.01 785.43 1327.22 781.113 1327.22 775.787C1327.22 770.462 1323.01 766.145 1317.82 766.145C1312.62 766.145 1308.41 770.462 1308.41 775.787C1308.41 781.113 1312.62 785.43 1317.82 785.43Z" fill="#484C65"/>
<path opacity="0.15" d="M1278.14 1072.85C1283.33 1072.85 1287.54 1068.53 1287.54 1063.2C1287.54 1057.88 1283.33 1053.56 1278.14 1053.56C1272.94 1053.56 1268.73 1057.88 1268.73 1063.2C1268.73 1068.53 1272.94 1072.85 1278.14 1072.85Z" fill="#484C65"/>
<path opacity="0.15" d="M1671 146.205C1676.2 146.205 1680.41 141.888 1680.41 136.562C1680.41 131.237 1676.2 126.919 1671 126.919C1665.81 126.919 1661.6 131.237 1661.6 136.562C1661.6 141.888 1665.81 146.205 1671 146.205Z" fill="#484C65"/>
<path opacity="0.15" d="M1611.39 387.103C1616.58 387.103 1620.79 382.786 1620.79 377.46C1620.79 372.134 1616.58 367.817 1611.39 367.817C1606.2 367.817 1601.99 372.134 1601.99 377.46C1601.99 382.786 1606.2 387.103 1611.39 387.103Z" fill="#484C65"/>
<path opacity="0.15" d="M1649.32 745.508C1654.51 745.508 1658.72 741.191 1658.72 735.866C1658.72 730.54 1654.51 726.223 1649.32 726.223C1644.13 726.223 1639.92 730.54 1639.92 735.866C1639.92 741.191 1644.13 745.508 1649.32 745.508Z" fill="#484C65"/>
<path opacity="0.15" d="M1637.3 1080.62C1642.5 1080.62 1646.71 1076.3 1646.71 1070.97C1646.71 1065.65 1642.5 1061.33 1637.3 1061.33C1632.11 1061.33 1627.9 1065.65 1627.9 1070.97C1627.9 1076.3 1632.11 1080.62 1637.3 1080.62Z" fill="#484C65"/>
<path opacity="0.15" d="M1867.78 137.411C1872.98 137.411 1877.19 133.093 1877.19 127.768C1877.19 122.442 1872.98 118.125 1867.78 118.125C1862.59 118.125 1858.38 122.442 1858.38 127.768C1858.38 133.093 1862.59 137.411 1867.78 137.411Z" fill="#484C65"/>
<path opacity="0.15" d="M1899 503.434C1904.19 503.434 1908.4 499.117 1908.4 493.791C1908.4 488.466 1904.19 484.148 1899 484.148C1893.81 484.148 1889.6 488.466 1889.6 493.791C1889.6 499.117 1893.81 503.434 1899 503.434Z" fill="#484C65"/>
<path opacity="0.15" d="M1839.78 735.731C1844.98 735.731 1849.18 731.413 1849.18 726.088C1849.18 720.762 1844.98 716.445 1839.78 716.445C1834.59 716.445 1830.38 720.762 1830.38 726.088C1830.38 731.413 1834.59 735.731 1839.78 735.731Z" fill="#484C65"/>
<path opacity="0.15" d="M1829.44 1022.2C1834.63 1022.2 1838.84 1017.88 1838.84 1012.56C1838.84 1007.23 1834.63 1002.92 1829.44 1002.92C1824.25 1002.92 1820.04 1007.23 1820.04 1012.56C1820.04 1017.88 1824.25 1022.2 1829.44 1022.2Z" fill="#484C65"/>
<path opacity="0.15" d="M166.389 986.58L-48.5212 941.104" stroke="black" stroke-width="1.5"/>
<path opacity="0.15" d="M166.389 986.58L439.671 980.003" stroke="black" stroke-width="1.5"/>
<path opacity="0.15" d="M166.389 986.58L179.628 1330.98" stroke="black" stroke-width="1.5"/>
<path opacity="0.15" d="M166.389 986.58L455.637 795.478" stroke="black" stroke-width="1.5"/>
<path opacity="0.15" d="M179.628 1330.98L439.671 980.003" stroke="black" stroke-width="1.5"/>
<path opacity="0.15" d="M179.628 1330.98L-48.5212 941.104" stroke="black" stroke-width="1.5"/>
<path opacity="0.15" d="M455.637 795.478L439.671 980.004" stroke="black" stroke-width="1.5"/>
<path opacity="0.15" d="M455.637 795.478L786.765 729.791" stroke="black" stroke-width="1.5"/>
<path opacity="0.15" d="M439.671 980.003L472.844 1297.16" stroke="black" stroke-width="1.5"/>
<path opacity="0.15" d="M439.671 980.003L698.943 1264.41" stroke="black" stroke-width="1.5"/>
<path opacity="0.15" d="M439.671 980.003L808.617 1080.19" stroke="black" stroke-width="1.5"/>
<path opacity="0.15" d="M786.765 729.791L980.65 752.837" stroke="black" stroke-width="1.5"/>
<path opacity="0.15" d="M786.765 729.791L1018.58 983.186" stroke="black" stroke-width="1.5"/>
<path opacity="0.15" d="M786.765 729.791L808.617 1080.19" stroke="black" stroke-width="1.5"/>
<path opacity="0.15" d="M786.765 729.791L439.671 980.004" stroke="black" stroke-width="1.5"/>
<path opacity="0.15" d="M786.765 729.791L1267.15 732.819" stroke="black" stroke-width="1.5"/>
<path opacity="0.15" d="M808.617 1080.19L698.943 1264.41" stroke="black" stroke-width="1.5"/>
<path opacity="0.15" d="M808.617 1080.19L1018.58 983.186" stroke="black" stroke-width="1.5"/>
<path opacity="0.15" d="M808.617 1080.19L1085.02 1281.75" stroke="black" stroke-width="1.5"/>
<path opacity="0.15" d="M1267.15 732.819L1317.7 987.757" stroke="black" stroke-width="1.5"/>
<path opacity="0.15" d="M1267.15 732.819L980.65 752.837" stroke="black" stroke-width="1.5"/>
<path opacity="0.15" d="M1267.15 732.819L1273.77 417.979" stroke="black" stroke-width="1.5"/>
<path opacity="0.15" d="M1267.15 732.819L1018.58 983.186" stroke="black" stroke-width="1.5"/>
<path opacity="0.15" d="M1267.15 732.819L1628.6 771.776" stroke="black" stroke-width="1.5"/>
<path opacity="0.15" d="M1934.56 -112.455L1915.08 130.506" stroke="black" stroke-width="1.5"/>
<path opacity="0.15" d="M-52.1885 1322.34L166.389 986.58" stroke="black" stroke-width="1.5"/>
<path opacity="0.15" d="M980.65 752.837L1018.58 983.185" stroke="black" stroke-width="1.5"/>
<path opacity="0.15" d="M1018.58 983.186L1085.02 1281.75" stroke="black" stroke-width="1.5"/>
<path opacity="0.15" d="M1273.77 417.979L1567.25 185.046" stroke="black" stroke-width="1.5"/>
<path opacity="0.15" d="M1317.7 987.756L1557.47 1068.51" stroke="black" stroke-width="1.5"/>
<path opacity="0.15" d="M1320 1265.08L1317.7 987.756" stroke="black" stroke-width="1.5"/>
<path opacity="0.15" d="M1320 1265.09L1557.47 1068.51" stroke="black" stroke-width="1.5"/>
<path opacity="0.15" d="M1320 1265.08L1018.58 983.186" stroke="black" stroke-width="1.5"/>
<path opacity="0.15" d="M1320 1265.09L1267.15 732.819" stroke="black" stroke-width="1.5"/>
<path opacity="0.15" d="M1669.01 -164.816L1567.25 185.046" stroke="black" stroke-width="1.5"/>
<path opacity="0.15" d="M1669.01 -164.816L1915.08 130.506" stroke="black" stroke-width="1.5"/>
<path opacity="0.15" d="M1669.01 -164.816L2203.37 126.746" stroke="black" stroke-width="1.5"/>
<path opacity="0.15" d="M1567.25 185.046L1674.33 481.989" stroke="black" stroke-width="1.5"/>
<path opacity="0.15" d="M1567.25 185.046L1915.08 130.506" stroke="black" stroke-width="1.5"/>
<path opacity="0.15" d="M1674.33 481.989L1628.6 771.776" stroke="black" stroke-width="1.5"/>
<path opacity="0.15" d="M1674.33 481.989L1960.61 431.287" stroke="black" stroke-width="1.5"/>
<path opacity="0.15" d="M1628.6 771.776L1877.22 739.646" stroke="black" stroke-width="1.5"/>
<path opacity="0.15" d="M1628.6 771.776L1557.47 1068.51" stroke="black" stroke-width="1.5"/>
<path opacity="0.15" d="M1557.47 1068.51L1599.45 1282.48" stroke="black" stroke-width="1.5"/>
<path opacity="0.15" d="M1557.47 1068.51L1913.61 1229.48" stroke="black" stroke-width="1.5"/>
<path opacity="0.15" d="M1915.08 130.507L2203.37 126.746" stroke="black" stroke-width="1.5"/>
<path opacity="0.15" d="M1960.61 431.286L1915.08 130.506" stroke="black" stroke-width="1.5"/>
<path opacity="0.15" d="M1960.61 431.287L1877.22 739.646" stroke="black" stroke-width="1.5"/>
<path opacity="0.15" d="M1877.22 739.646L1958.6 1016.18" stroke="black" stroke-width="1.5"/>
<path opacity="0.15" d="M1958.6 1016.18L1913.61 1229.48" stroke="black" stroke-width="1.5"/>
<path opacity="0.15" d="M2218.96 -98.9358L1915.08 130.506" stroke="black" stroke-width="1.5"/>
<path opacity="0.15" d="M2243.16 400.275L1915.08 130.506" stroke="black" stroke-width="1.5"/>
<path opacity="0.15" d="M2190.52 740.34L1877.22 739.646" stroke="black" stroke-width="1.5"/>
<path opacity="0.15" d="M166.389 1034.79C192.354 1034.79 213.403 1013.21 213.403 986.58C213.403 959.952 192.354 938.366 166.389 938.366C140.424 938.366 119.375 959.952 119.375 986.58C119.375 1013.21 140.424 1034.79 166.389 1034.79Z" fill="url(#paint0_radial_103_689)"/>
<path opacity="0.15" d="M455.637 843.692C481.602 843.692 502.651 822.106 502.651 795.478C502.651 768.85 481.602 747.264 455.637 747.264C429.672 747.264 408.623 768.85 408.623 795.478C408.623 822.106 429.672 843.692 455.637 843.692Z" fill="url(#paint1_radial_103_689)"/>
<path opacity="0.15" d="M439.671 1028.22C465.636 1028.22 486.685 1006.63 486.685 980.003C486.685 953.375 465.636 931.789 439.671 931.789C413.706 931.789 392.657 953.375 392.657 980.003C392.657 1006.63 413.706 1028.22 439.671 1028.22Z" fill="url(#paint2_radial_103_689)"/>
<path opacity="0.15" d="M786.765 778.005C812.73 778.005 833.779 756.419 833.779 729.791C833.779 703.163 812.73 681.577 786.765 681.577C760.8 681.577 739.751 703.163 739.751 729.791C739.751 756.419 760.8 778.005 786.765 778.005Z" fill="url(#paint3_radial_103_689)"/>
<path opacity="0.15" d="M808.617 1128.41C834.582 1128.41 855.631 1106.82 855.631 1080.19C855.631 1053.56 834.582 1031.98 808.617 1031.98C782.652 1031.98 761.603 1053.56 761.603 1080.19C761.603 1106.82 782.652 1128.41 808.617 1128.41Z" fill="url(#paint4_radial_103_689)"/>
<path opacity="0.15" d="M1267.15 781.033C1293.12 781.033 1314.17 759.447 1314.17 732.819C1314.17 706.191 1293.12 684.604 1267.15 684.604C1241.19 684.604 1220.14 706.191 1220.14 732.819C1220.14 759.447 1241.19 781.033 1267.15 781.033Z" fill="url(#paint5_radial_103_689)"/>
<path opacity="0.15" d="M980.65 762.48C985.843 762.48 990.053 758.163 990.053 752.837C990.053 747.512 985.843 743.194 980.65 743.194C975.457 743.194 971.247 747.512 971.247 752.837C971.247 758.163 975.457 762.48 980.65 762.48Z" fill="#B3B5C0"/>
<path opacity="0.15" d="M1018.58 992.829C1023.77 992.829 1027.98 988.511 1027.98 983.186C1027.98 977.86 1023.77 973.543 1018.58 973.543C1013.39 973.543 1009.18 977.86 1009.18 983.186C1009.18 988.511 1013.39 992.829 1018.58 992.829Z" fill="#B3B5C0"/>
<path opacity="0.15" d="M1273.77 427.622C1278.97 427.622 1283.18 423.305 1283.18 417.979C1283.18 412.654 1278.97 408.336 1273.77 408.336C1268.58 408.336 1264.37 412.654 1264.37 417.979C1264.37 423.305 1268.58 427.622 1273.77 427.622Z" fill="#B3B5C0"/>
<path opacity="0.15" d="M1317.7 997.399C1322.9 997.399 1327.11 993.082 1327.11 987.756C1327.11 982.43 1322.9 978.113 1317.7 978.113C1312.51 978.113 1308.3 982.43 1308.3 987.756C1308.3 993.082 1312.51 997.399 1317.7 997.399Z" fill="#B3B5C0"/>
<path opacity="0.15" d="M1567.25 194.689C1572.44 194.689 1576.65 190.372 1576.65 185.046C1576.65 179.721 1572.44 175.404 1567.25 175.404C1562.06 175.404 1557.85 179.721 1557.85 185.046C1557.85 190.372 1562.06 194.689 1567.25 194.689Z" fill="#B3B5C0"/>
<path opacity="0.15" d="M1674.33 491.631C1679.52 491.631 1683.73 487.314 1683.73 481.989C1683.73 476.663 1679.52 472.346 1674.33 472.346C1669.14 472.346 1664.93 476.663 1664.93 481.989C1664.93 487.314 1669.14 491.631 1674.33 491.631Z" fill="#B3B5C0"/>
<path opacity="0.15" d="M1628.6 781.419C1633.79 781.419 1638 777.101 1638 771.776C1638 766.45 1633.79 762.133 1628.6 762.133C1623.4 762.133 1619.19 766.45 1619.19 771.776C1619.19 777.101 1623.4 781.419 1628.6 781.419Z" fill="#B3B5C0"/>
<path opacity="0.15" d="M1557.47 1078.15C1562.67 1078.15 1566.88 1073.83 1566.88 1068.51C1566.88 1063.18 1562.67 1058.86 1557.47 1058.86C1552.28 1058.86 1548.07 1063.18 1548.07 1068.51C1548.07 1073.83 1552.28 1078.15 1557.47 1078.15Z" fill="#B3B5C0"/>
<path opacity="0.15" d="M1915.08 140.149C1920.27 140.149 1924.48 135.832 1924.48 130.506C1924.48 125.181 1920.27 120.864 1915.08 120.864C1909.89 120.864 1905.68 125.181 1905.68 130.506C1905.68 135.832 1909.89 140.149 1915.08 140.149Z" fill="#B3B5C0"/>
<path opacity="0.15" d="M1877.22 749.289C1882.42 749.289 1886.63 744.971 1886.63 739.646C1886.63 734.32 1882.42 730.003 1877.22 730.003C1872.03 730.003 1867.82 734.32 1867.82 739.646C1867.82 744.971 1872.03 749.289 1877.22 749.289Z" fill="#B3B5C0"/>
</g>
</g>
<defs>
<radialGradient id="paint0_radial_103_689" cx="0" cy="0" r="1" gradientUnits="userSpaceOnUse" gradientTransform="translate(166.389 986.58) scale(47.0139 48.2143)">
<stop offset="0.1" stop-color="white"/>
<stop offset="0.2" stop-color="#666A81"/>
<stop offset="1" stop-color="#666A81" stop-opacity="0"/>
</radialGradient>
<radialGradient id="paint1_radial_103_689" cx="0" cy="0" r="1" gradientUnits="userSpaceOnUse" gradientTransform="translate(455.637 795.478) scale(47.0139 48.2143)">
<stop offset="0.1" stop-color="white"/>
<stop offset="0.2" stop-color="#666A81"/>
<stop offset="1" stop-color="#666A81" stop-opacity="0"/>
</radialGradient>
<radialGradient id="paint2_radial_103_689" cx="0" cy="0" r="1" gradientUnits="userSpaceOnUse" gradientTransform="translate(439.671 980.003) scale(47.0139 48.2143)">
<stop offset="0.1" stop-color="white"/>
<stop offset="0.2" stop-color="#666A81"/>
<stop offset="1" stop-color="#666A81" stop-opacity="0"/>
</radialGradient>
<radialGradient id="paint3_radial_103_689" cx="0" cy="0" r="1" gradientUnits="userSpaceOnUse" gradientTransform="translate(786.765 729.791) scale(47.0139 48.2143)">
<stop offset="0.1" stop-color="white"/>
<stop offset="0.2" stop-color="#666A81"/>
<stop offset="1" stop-color="#666A81" stop-opacity="0"/>
</radialGradient>
<radialGradient id="paint4_radial_103_689" cx="0" cy="0" r="1" gradientUnits="userSpaceOnUse" gradientTransform="translate(808.617 1080.19) scale(47.0139 48.2143)">
<stop offset="0.1" stop-color="white"/>
<stop offset="0.2" stop-color="#666A81"/>
<stop offset="1" stop-color="#666A81" stop-opacity="0"/>
</radialGradient>
<radialGradient id="paint5_radial_103_689" cx="0" cy="0" r="1" gradientUnits="userSpaceOnUse" gradientTransform="translate(1267.15 732.819) scale(47.0139 48.2143)">
<stop offset="0.1" stop-color="white"/>
<stop offset="0.2" stop-color="#666A81"/>
<stop offset="1" stop-color="#666A81" stop-opacity="0"/>
</radialGradient>
<clipPath id="clip0_103_689">
<rect width="1920" height="1080" fill="white"/>
</clipPath>
</defs>
</svg>
